<svg width="30" height="30" viewBox="0 0 30 30" fill="none" xmlns="http://www.w3.org/2000/svg">
<g id="menu">
<path id="Vector" d="M2.99996 6.99998C2.86745 6.9981 2.73589 7.02259 2.61292 7.072C2.48995 7.12141 2.37803 7.19477 2.28366 7.28782C2.18929 7.38086 2.11435 7.49173 2.0632 7.61399C2.01206 7.73625 1.98572 7.86745 1.98572 7.99998C1.98572 8.1325 2.01206 8.26371 2.0632 8.38596C2.11435 8.50822 2.18929 8.61909 2.28366 8.71214C2.37803 8.80518 2.48995 8.87854 2.61292 8.92796C2.73589 8.97737 2.86745 9.00185 2.99996 8.99998H27C27.1325 9.00185 27.264 8.97737 27.387 8.92796C27.51 8.87854 27.6219 8.80518 27.7163 8.71214C27.8106 8.61909 27.8856 8.50822 27.9367 8.38596C27.9879 8.26371 28.0142 8.1325 28.0142 7.99998C28.0142 7.86745 27.9879 7.73625 27.9367 7.61399C27.8856 7.49173 27.8106 7.38086 27.7163 7.28782C27.6219 7.19477 27.51 7.12141 27.387 7.072C27.264 7.02259 27.1325 6.9981 27 6.99998H2.99996ZM2.99996 14C2.86745 13.9981 2.73589 14.0226 2.61292 14.072C2.48995 14.1214 2.37803 14.1948 2.28366 14.2878C2.18929 14.3809 2.11435 14.4917 2.0632 14.614C2.01206 14.7362 1.98572 14.8675 1.98572 15C1.98572 15.1325 2.01206 15.2637 2.0632 15.386C2.11435 15.5082 2.18929 15.6191 2.28366 15.7121C2.37803 15.8052 2.48995 15.8785 2.61292 15.928C2.73589 15.9774 2.86745 16.0019 2.99996 16H27C27.1325 16.0019 27.264 15.9774 27.387 15.928C27.51 15.8785 27.6219 15.8052 27.7163 15.7121C27.8106 15.6191 27.8856 15.5082 27.9367 15.386C27.9879 15.2637 28.0142 15.1325 28.0142 15C28.0142 14.8675 27.9879 14.7362 27.9367 14.614C27.8856 14.4917 27.8106 14.3809 27.7163 14.2878C27.6219 14.1948 27.51 14.1214 27.387 14.072C27.264 14.0226 27.1325 13.9981 27 14H2.99996ZM2.99996 21C2.86745 20.9981 2.73589 21.0226 2.61292 21.072C2.48995 21.1214 2.37803 21.1948 2.28366 21.2878C2.18929 21.3809 2.11435 21.4917 2.0632 21.614C2.01206 21.7362 1.98572 21.8675 1.98572 22C1.98572 22.1325 2.01206 22.2637 2.0632 22.386C2.11435 22.5082 2.18929 22.6191 2.28366 22.7121C2.37803 22.8052 2.48995 22.8785 2.61292 22.928C2.73589 22.9774 2.86745 23.0019 2.99996 23H27C27.1325 23.0019 27.264 22.9774 27.387 22.928C27.51 22.8785 27.6219 22.8052 27.7163 22.7121C27.8106 22.6191 27.8856 22.5082 27.9367 22.386C27.9879 22.2637 28.0142 22.1325 28.0142 22C28.0142 21.8675 27.9879 21.7362 27.9367 21.614C27.8856 21.4917 27.8106 21.3809 27.7163 21.2878C27.6219 21.1948 27.51 21.1214 27.387 21.072C27.264 21.0226 27.1325 20.9981 27 21H2.99996Z" fill="white"/>
</g>
</svg>
